<svg xmlns="http://www.w3.org/2000/svg" viewBox="0 0 1280 916" style="background:#dee1e6;font-family:'Segoe UI',Arial,sans-serif;">
  <defs>
    <style>
      text { font-family: 'Fira Code', Consolas, monospace; fill: #cdd6f4; }
      .title { font-size:14px; font-weight:bold; fill:#cba6f7; }
      .header { font-size:13px; fill:#89dceb; }
      .key { font-size:11px; fill:#89b4fa; font-weight:bold; }
      .val { font-size:11px; fill:#cdd6f4; }
      .dim { font-size:11px; fill:#6c7086; }
      .green { font-size:11px; fill:#a6e3a1; }
      .yellow { font-size:11px; fill:#f9e2af; }
      .border { fill:none; stroke:#313244; stroke-width:1; }
      .primary-border { fill:none; stroke:#89b4fa; stroke-width:1; }
      .section-label { font-size:11px; fill:#89b4fa; font-weight:bold; }
      .action-btn { font-size:11px; fill:#a6e3a1; }
      .action-btn-warn { font-size:11px; fill:#f9e2af; }
      .action-btn-err { font-size:11px; fill:#f38ba8; }
    </style>
  </defs>

  <!-- ===== Browser chrome ===== -->
  <!-- Window frame -->
  <rect x="0" y="0" width="1280" height="916" rx="8" fill="#dee1e6" stroke="#bdc1c6" stroke-width="1"/>

  <!-- Title bar -->
  <rect x="0" y="0" width="1280" height="36" rx="8" fill="#3c4043"/>
  <rect x="0" y="18" width="1280" height="18" fill="#3c4043"/>

  <!-- Window controls (macOS-style) -->
  <circle cx="20" cy="18" r="6" fill="#ff5f57"/>
  <circle cx="40" cy="18" r="6" fill="#febc2e"/>
  <circle cx="60" cy="18" r="6" fill="#28c840"/>

  <!-- Tab bar -->
  <rect x="0" y="36" width="1280" height="40" fill="#202124"/>
  <!-- Active tab -->
  <rect x="80" y="40" width="280" height="36" rx="4" fill="#3c4043"/>
  <text x="130" y="63" font-size="13" fill="#e8eaed" font-family="'Segoe UI',Arial,sans-serif">🖥  BSP Registry Explorer</text>
  <text x="348" y="63" font-size="12" fill="#9aa0a6" font-family="'Segoe UI',Arial,sans-serif">✕</text>
  <text x="372" y="63" font-size="16" fill="#9aa0a6" font-family="'Segoe UI',Arial,sans-serif">+</text>

  <!-- Navigation bar -->
  <rect x="0" y="76" width="1280" height="44" fill="#3c4043"/>
  <text x="16" y="104" font-size="18" fill="#9aa0a6" font-family="'Segoe UI',Arial,sans-serif">←</text>
  <text x="40" y="104" font-size="18" fill="#5f6368" font-family="'Segoe UI',Arial,sans-serif">→</text>
  <text x="65" y="104" font-size="16" fill="#9aa0a6" font-family="'Segoe UI',Arial,sans-serif">↻</text>
  <!-- Address bar -->
  <rect x="90" y="84" width="1060" height="28" rx="14" fill="#202124" stroke="#5f6368" stroke-width="1"/>
  <text x="120" y="103" font-size="13" fill="#9aa0a6" font-family="'Segoe UI',Arial,sans-serif">🔒</text>
  <text x="145" y="103" font-size="13" fill="#e8eaed" font-family="'Segoe UI',Arial,sans-serif">localhost:8080</text>
  <text x="1168" y="104" font-size="16" fill="#9aa0a6" font-family="'Segoe UI',Arial,sans-serif">★</text>
  <text x="1210" y="104" font-size="18" fill="#9aa0a6" font-family="'Segoe UI',Arial,sans-serif">⋮</text>

  <!-- ===== TUI content starts at y=120 ===== -->
  <rect x="0" y="120" width="1280" height="796" fill="#1e1e2e"/>

  <!-- Header bar -->
  <rect x="0" y="120" width="1280" height="32" fill="#313244"/>
  <text x="640" y="140" text-anchor="middle" class="title">BSP Registry Explorer</text>
  <text x="640" y="152" text-anchor="middle" class="dim" font-size="10">Advantech Board Support Package Manager</text>

  <!-- Registry bar -->
  <rect x="0" y="152" width="1280" height="28" fill="#181825"/>
  <text x="10" y="170" class="dim" font-size="11">Registry: /home/user/.cache/bsp-registry  [https://github.com/example/bsp-registry @ main]</text>
  <rect x="1190" y="155" width="80" height="22" rx="2" fill="#313244" stroke="#89b4fa" stroke-width="1"/>
  <text x="1230" y="171" text-anchor="middle" class="header" font-size="11">⟳ Refresh</text>

  <!-- Left panel border -->
  <rect x="5" y="185" width="490" height="598" rx="3" class="primary-border"/>
  <!-- Left panel label -->
  <text x="15" y="202" class="section-label">BSP Presets</text>
  <!-- Filter input -->
  <rect x="10" y="206" width="480" height="22" rx="2" fill="#313244" stroke="#585b70" stroke-width="1"/>
  <text x="15" y="222" class="dim">Filter by vendor, device or release…</text>
  <!-- Tree contents -->
  <text x="18" y="246" class="key">▼ Vendors</text>
  <text x="28" y="262" class="key">  ▼ QEMU</text>
  <text x="38" y="278" class="dim">    ▼ QEMU ARM64 (emulated)</text>
  <text x="48" y="294" class="dim">      ▼ Yocto 5.0 LTS (Scarthgap)</text>
  <!-- Selected item highlighted -->
  <rect x="52" y="298" width="430" height="16" rx="1" fill="#313244"/>
  <text x="58" y="310" class="green" font-weight="bold">          poky-qemuarm64-scarthgap</text>
  <text x="48" y="326" class="dim">      ▼ Yocto 5.1 (Styhead)</text>
  <text x="58" y="342" class="dim">          poky-qemuarm64-styhead</text>
  <text x="38" y="358" class="dim">    ▼ QEMU x86-64 (emulated)</text>
  <text x="48" y="374" class="dim">      ▼ Yocto 5.0 LTS (Scarthgap)</text>
  <text x="58" y="390" class="dim">          poky-harden-qemux86-64-scarthgap</text>
  <text x="58" y="406" class="dim">          poky-qemux86-64-scarthgap</text>
  <text x="48" y="422" class="dim">      ▼ Yocto 5.1 (Styhead)</text>
  <text x="58" y="438" class="dim">          poky-qemux86-64-styhead</text>
  <text x="38" y="454" class="dim">    ▼ QEMU ARM (32-bit, emulated)</text>
  <text x="48" y="470" class="dim">      ▼ Yocto 5.0 LTS (Scarthgap)</text>
  <text x="58" y="486" class="dim">          poky-qemuarm-scarthgap</text>
  <text x="28" y="502" class="key">  ▼ Advantech</text>
  <text x="38" y="518" class="dim">    ▼ RSB-3720 (ARM Cortex-A55)</text>
  <text x="48" y="534" class="dim">      ▼ Yocto 5.0 LTS (Scarthgap)</text>
  <text x="58" y="550" class="dim">          rsb3720-scarthgap</text>
  <text x="38" y="566" class="dim">    ▼ AIR-030 (i.MX 8M Plus)</text>
  <text x="48" y="582" class="dim">      ▼ Yocto 5.0 LTS (Scarthgap)</text>
  <text x="58" y="598" class="dim">          air030-scarthgap</text>
  <text x="28" y="614" class="key">  ▼ NXP</text>
  <text x="38" y="630" class="dim">    ▼ i.MX8M Plus EVK</text>
  <text x="48" y="646" class="dim">      ▼ Yocto 5.0 LTS (Scarthgap)</text>
  <text x="58" y="662" class="dim">          imx8mp-evk-scarthgap</text>
  <text x="28" y="678" class="dim">  ▶ Other</text>

  <!-- Right panel border -->
  <rect x="500" y="185" width="775" height="598" rx="3" class="primary-border"/>

  <!-- RIGHT PANEL - BSP Details -->
  <text x="510" y="202" class="section-label">BSP Details</text>
  <line x1="500" y1="207" x2="1275" y2="207" stroke="#313244" stroke-width="1"/>
  <text x="510" y="225" font-size="11"><tspan class="key">Name:        </tspan><tspan class="val">poky-qemuarm64-scarthgap</tspan></text>
  <text x="510" y="241" font-size="11"><tspan class="key">Description: </tspan><tspan class="val">Yocto Poky for QEMU ARM64 (Scarthgap)</tspan></text>
  <text x="510" y="257" font-size="11"><tspan class="key">Device:      </tspan><tspan class="val">qemuarm64</tspan></text>
  <text x="510" y="273" font-size="11"><tspan class="key">Release:     </tspan><tspan class="val">scarthgap  (Yocto 5.0 LTS)</tspan></text>
  <text x="510" y="289" font-size="11"><tspan class="key">Features:    </tspan><tspan class="val">poky, qemu, arm64</tspan></text>
  <text x="510" y="305" font-size="11"><tspan class="key">Build Path:  </tspan><tspan class="val">/home/user/builds/poky-qemuarm64-scarthgap</tspan></text>
  <line x1="500" y1="320" x2="1275" y2="320" stroke="#313244" stroke-width="1"/>

  <!-- Build Environment -->
  <text x="510" y="337" class="section-label">Build Environment</text>
  <text x="510" y="355" font-size="11"><tspan class="key">Container:   </tspan><tspan class="val">crops-poky  </tspan><tspan class="dim">(crops/poky:latest)</tspan></text>
  <text x="510" y="371" font-size="11"><tspan class="key">Environment: </tspan><tspan class="val">default</tspan></text>
  <text x="510" y="387" class="key">Variables:</text>
  <text x="520" y="403" font-size="11"><tspan class="dim">MACHINE</tspan><tspan class="val"> = qemuarm64</tspan></text>
  <text x="520" y="419" font-size="11"><tspan class="dim">DISTRO</tspan><tspan class="val"> = poky</tspan></text>
  <text x="520" y="435" font-size="11"><tspan class="dim">KAS_BUILD_DIR</tspan><tspan class="val"> = /work/build</tspan></text>
  <text x="520" y="451" class="dim">SSTATE_DIR = /work/sstate-cache</text>
  <line x1="500" y1="465" x2="1275" y2="465" stroke="#313244" stroke-width="1"/>

  <!-- Build Artifacts -->
  <text x="510" y="482" class="section-label">Build Artifacts</text>
  <text x="510" y="500" font-size="11"><tspan>💾 </tspan><tspan font-weight="bold" fill="#cdd6f4">core-image-minimal-qemuarm64.rootfs.wic</tspan><tspan class="dim">  847.3 MB  2025-03-25 14:32</tspan></text>
  <text x="510" y="518" font-size="11"><tspan>💾 </tspan><tspan font-weight="bold" fill="#cdd6f4">core-image-minimal-qemuarm64.rootfs.wic.gz</tspan><tspan class="dim">  312.1 MB  2025-03-25 14:32</tspan></text>
  <text x="510" y="536" font-size="11"><tspan>🐧 </tspan><tspan font-weight="bold" fill="#cdd6f4">Image-5.15.72-yocto-standard</tspan><tspan class="dim">  18.4 MB  2025-03-25 14:28</tspan></text>
  <text x="510" y="554" font-size="11"><tspan>🐧 </tspan><tspan font-weight="bold" fill="#cdd6f4">fitImage-5.15.72+git0</tspan><tspan class="dim">  22.1 MB  2025-03-25 14:30</tspan></text>

  <!-- Action bar -->
  <rect x="0" y="786" width="1280" height="32" fill="#181825" stroke="#313244" stroke-width="1"/>
  <rect x="8" y="791" width="72" height="22" rx="2" fill="#313244" stroke="#a6e3a1" stroke-width="1"/>
  <text x="44" y="807" text-anchor="middle" class="action-btn">▶ Build</text>
  <rect x="86" y="791" width="68" height="22" rx="2" fill="#313244" stroke="#585b70" stroke-width="1"/>
  <text x="120" y="807" text-anchor="middle" class="dim">$ Shell</text>
  <rect x="160" y="791" width="70" height="22" rx="2" fill="#313244" stroke="#585b70" stroke-width="1"/>
  <text x="195" y="807" text-anchor="middle" class="dim">↑ Export</text>
  <rect x="236" y="791" width="64" height="22" rx="2" fill="#313244" stroke="#f9e2af" stroke-width="1"/>
  <text x="268" y="807" text-anchor="middle" class="action-btn-warn">⚡ Flash</text>
  <rect x="306" y="791" width="100" height="22" rx="2" fill="#313244" stroke="#585b70" stroke-width="1"/>
  <text x="356" y="807" text-anchor="middle" class="dim">☰ Containers</text>
  <rect x="412" y="791" width="72" height="22" rx="2" fill="#313244" stroke="#f38ba8" stroke-width="1"/>
  <text x="448" y="807" text-anchor="middle" class="action-btn-err">✕ Cancel</text>

  <!-- Log panel -->
  <rect x="5" y="821" width="1270" height="80" rx="3" class="primary-border"/>
  <text x="15" y="838" class="green">$ bsp build poky-qemuarm64-scarthgap</text>
  <text x="15" y="854" class="dim">NOTE: Executing Tasks (1623 of 5432)</text>
  <text x="15" y="870" class="dim">NOTE: recipe do_compile: glibc-2.38-r0</text>
  <text x="15" y="886" class="green">Command finished successfully</text>

  <!-- Status bar -->
  <rect x="0" y="904" width="1280" height="12" fill="#11111b"/>
  <text x="10" y="913" class="dim" font-size="9">q Quit  r Refresh  b Build  s Shell  e Export  f Flash  x Cancel</text>
</svg>
